{
  "accessors": [
    {
      "bufferView": 2,
      "componentType": 5126,
      "count": 173,
      "max": [
        15.037879943847656,
        11.187170028686523,
        39.75600051879883
      ],
      "min": [
        -16.962120056152344,
        -10.812829971313477,
        13.755999565124512
      ],
      "type": "VEC3"
    },
    {
      "bufferView": 2,
      "byteOffset": 2076,
      "componentType": 5126,
      "count": 173,
      "max": [
        1.0,
        1.0,
        1.0
      ],
      "min": [
        -1.0,
        -1.0,
        -1.0
      ],
      "type": "VEC3"
    },
    {
      "bufferView": 0,
      "componentType": 5125,
      "count": 327,
      "type": "SCALAR"
    },
    {
      "bufferView": 2,
      "byteOffset": 4152,
      "componentType": 5126,
      "count": 686,
      "max": [
        15.037879943847656,
        13.187170028686523,
        37.75600051879883
      ],
      "min": [
        -14.962120056152344,
        -10.812829971313477,
        15.755999565124512
      ],
      "type": "VEC3"
    },
    {
      "bufferView": 2,
      "byteOffset": 12384,
      "componentType": 5126,
      "count": 686,
      "max": [
        1.0,
        1.0,
        1.0
      ],
      "min": [
        -1.0,
        -1.0,
        -1.0
      ],
      "type": "VEC3"
    },
    {
      "bufferView": 0,
      "byteOffset": 1308,
      "componentType": 5125,
      "count": 1176,
      "type": "SCALAR"
    },
    {
      "bufferView": 2,
      "byteOffset": 20616,
      "componentType": 5126,
      "count": 310,
      "max": [
        13.037879943847656,
        11.187170028686523,
        33.75600051879883
      ],
      "min": [
        -6.962120056152344,
        -8.812829971313477,
        23.756000518798828
      ],
      "type": "VEC3"
    },
    {
      "bufferView": 2,
      "byteOffset": 24336,
      "componentType": 5126,
      "count": 310,
      "max": [
        1.0,
        1.0,
        1.0
      ],
      "min": [
        -1.0,
        -1.0,
        -1.0
      ],
      "type": "VEC3"
    },
    {
      "bufferView": 0,
      "byteOffset": 6012,
      "componentType": 5125,
      "count": 546,
      "type": "SCALAR"
    },
    {
      "bufferView": 2,
      "byteOffset": 28056,
      "componentType": 5126,
      "count": 118,
      "max": [
        11.037879943847656,
        9.187170028686523,
        33.75600051879883
      ],
      "min": [
        3.0378799438476563,
        -6.812829971313477,
        25.756000518798828
      ],
      "type": "VEC3"
    },
    {
      "bufferView": 2,
      "byteOffset": 29472,
      "componentType": 5126,
      "count": 118,
      "max": [
        1.0,
        1.0,
        1.0
      ],
      "min": [
        0.0,
        -1.0,
        -1.0
      ],
      "type": "VEC3"
    },
    {
      "bufferView": 0,
      "byteOffset": 8196,
      "componentType": 5125,
      "count": 210,
      "type": "SCALAR"
    },
    {
      "bufferView": 2,
      "byteOffset": 30888,
      "componentType": 5126,
      "count": 363,
      "max": [
        15.037879943847656,
        9.187170028686523,
        33.75600051879883
      ],
      "min": [
        -14.962120056152344,
        -6.812829971313477,
        7.75600004196167
      ],
      "type": "VEC3"
    },
    {
      "bufferView": 2,
      "byteOffset": 35244,
      "componentType": 5126,
      "count": 363,
      "max": [
        1.0,
        1.0,
        1.0
      ],
      "min": [
        -1.0,
        -1.0,
        -1.0
      ],
      "type": "VEC3"
    },
    {
      "bufferView": 0,
      "byteOffset": 9036,
      "componentType": 5125,
      "count": 663,
      "type": "SCALAR"
    },
    {
      "bufferView": 2,
      "byteOffset": 39600,
      "componentType": 5126,
      "count": 500,
      "max": [
        11.037879943847656,
        11.187170028686523,
        23.756000518798828
      ],
      "min": [
        -8.962120056152344,
        -8.812829971313477,
        7.75600004196167
      ],
      "type": "VEC3"
    },
    {
      "bufferView": 2,
      "byteOffset": 45600,
      "componentType": 5126,
      "count": 500,
      "max": [
        1.0,
        1.0,
        1.0
      ],
      "min": [
        -1.0,
        -1.0,
        -1.0
      ],
      "type": "VEC3"
    },
    {
      "bufferView": 0,
      "byteOffset": 11688,
      "componentType": 5125,
      "count": 864,
      "type": "SCALAR"
    },
    {
      "bufferView": 2,
      "byteOffset": 51600,
      "componentType": 5126,
      "count": 23,
      "max": [
        9.037879943847656,
        3.1871700286865234,
        17.756000518798828
      ],
      "min": [
        1.0378799438476563,
        -4.812829971313477,
        15.755999565124512
      ],
      "type": "VEC3"
    },
    {
      "bufferView": 2,
      "byteOffset": 51876,
      "componentType": 5126,
      "count": 23,
      "max": [
        1.0,
        -0.0,
        1.0
      ],
      "min": [
        -1.0,
        -1.0,
        0.0
      ],
      "type": "VEC3"
    },
    {
      "bufferView": 0,
      "byteOffset": 15144,
      "componentType": 5125,
      "count": 33,
      "type": "SCALAR"
    },
    {
      "bufferView": 2,
      "byteOffset": 52152,
      "componentType": 5126,
      "count": 4,
      "max": [
        5.037879943847656,
        5.187170028686523,
        -0.24400000274181366
      ],
      "min": [
        -4.962120056152344,
        -4.812829971313477,
        -0.24400000274181366
      ],
      "type": "VEC3"
    },
    {
      "bufferView": 2,
      "byteOffset": 52200,
      "componentType": 5126,
      "count": 4,
      "max": [
        0.0,
        -0.0,
        -1.0
      ],
      "min": [
        0.0,
        -0.0,
        -1.0
      ],
      "type": "VEC3"
    },
    {
      "bufferView": 0,
      "byteOffset": 15276,
      "componentType": 5125,
      "count": 6,
      "type": "SCALAR"
    },
    {
      "bufferView": 2,
      "byteOffset": 52248,
      "componentType": 5126,
      "count": 3292,
      "max": [
        1.0,
        1.0,
        1.0
      ],
      "min": [
        -1.0,
        -1.0,
        0.3426100015640259
      ],
      "type": "VEC3"
    },
    {
      "bufferView": 2,
      "byteOffset": 91752,
      "componentType": 5126,
      "count": 3292,
      "max": [
        1.0,
        1.0,
        0.9941970109939575
      ],
      "min": [
        -1.0,
        -1.0,
        -1.0
      ],
      "type": "VEC3"
    },
    {
      "bufferView": 1,
      "componentType": 5126,
      "count": 3292,
      "max": [
        1.0,
        1.0
      ],
      "min": [
        0.0,
        0.0
      ],
      "type": "VEC2"
    },
    {
      "bufferView": 0,
      "byteOffset": 15300,
      "componentType": 5125,
      "count": 14010,
      "type": "SCALAR"
    },
    {
      "bufferView": 2,
      "byteOffset": 131256,
      "componentType": 5126,
      "count": 64,
      "max": [
        0.8167499899864197,
        0.8167499899864197,
        0.6316900253295898
      ],
      "min": [
        -0.8167499899864197,
        -0.8167499899864197,
        0.6316900253295898
      ],
      "type": "VEC3"
    },
    {
      "bufferView": 2,
      "byteOffset": 132024,
      "componentType": 5126,
      "count": 64,
      "max": [
        0.0,
        0.0,
        1.0
      ],
      "min": [
        0.0,
        0.0,
        1.0
      ],
      "type": "VEC3"
    },
    {
      "bufferView": 1,
      "byteOffset": 26336,
      "componentType": 5126,
      "count": 64,
      "max": [
        0.8902699947357178,
        0.9146599769592285
      ],
      "min": [
        0.6169700026512146,
        0.640779972076416
      ],
      "type": "VEC2"
    },
    {
      "bufferView": 0,
      "byteOffset": 71340,
      "componentType": 5125,
      "count": 186,
      "type": "SCALAR"
    },
    {
      "bufferView": 2,
      "byteOffset": 132792,
      "componentType": 5126,
      "count": 52,
      "max": [
        5.037879943847656,
        5.187170028686523,
        11.755999565124512
      ],
      "min": [
        -4.962120056152344,
        -4.812829971313477,
        7.755990028381348
      ],
      "type": "VEC3"
    },
    {
      "bufferView": 2,
      "byteOffset": 133416,
      "componentType": 5126,
      "count": 52,
      "max": [
        1.0,
        1.0,
        0.0
      ],
      "min": [
        -2.9999999242136255e-05,
        0.0,
        -1.0
      ],
      "type": "VEC3"
    },
    {
      "bufferView": 0,
      "byteOffset": 72084,
      "componentType": 5125,
      "count": 90,
      "type": "SCALAR"
    },
    {
      "bufferView": 2,
      "byteOffset": 134040,
      "componentType": 5126,
      "count": 33,
      "max": [
        5.037879943847656,
        5.187170028686523,
        11.755999565124512
      ],
      "min": [
        -4.962120056152344,
        -4.812829971313477,
        -0.24400000274181366
      ],
      "type": "VEC3"
    },
    {
      "bufferView": 2,
      "byteOffset": 134436,
      "componentType": 5126,
      "count": 33,
      "max": [
        1.0,
        1.0,
        0.0
      ],
      "min": [
        -1.0,
        -1.0,
        0.0
      ],
      "type": "VEC3"
    },
    {
      "bufferView": 0,
      "byteOffset": 72444,
      "componentType": 5125,
      "count": 75,
      "type": "SCALAR"
    }
  ],
  "asset": {
    "extras": {
      "author": "lostdexter (https://sketchfab.com/lostdexter)",
      "license": "CC-BY-4.0 (http://creativecommons.org/licenses/by/4.0/)",
      "source": "https://sketchfab.com/3d-models/30th-anniversary-mario-modern-color-c5deeaf42da14034bc577bbef6d23115",
      "title": "30th Anniversary Mario - Modern Color"
    },
    "generator": "Sketchfab-12.67.0",
    "version": "2.0"
  },
  "bufferViews": [
    {
      "buffer": 0,
      "byteLength": 72744,
      "name": "floatBufferViews",
      "target": 34963
    },
    {
      "buffer": 0,
      "byteLength": 26848,
      "byteOffset": 72744,
      "byteStride": 8,
      "name": "floatBufferViews",
      "target": 34962
    },
    {
      "buffer": 0,
      "byteLength": 134832,
      "byteOffset": 99592,
      "byteStride": 12,
      "name": "floatBufferViews",
      "target": 34962
    }
  ],
  "buffers": [
    {
      "byteLength": 234424,
      "uri": "scene.bin"
    }
  ],
  "images": [
    {
      "uri": "textures/Material.001_baseColor.png"
    }
  ],
  "materials": [
    {
      "doubleSided": true,
      "name": "Blue",
      "pbrMetallicRoughness": {
        "baseColorFactor": [
          0.0003035266709048333,
          0.17464742064476027,
          0.610495626926422,
          1.0
        ],
        "metallicFactor": 0.0,
        "roughnessFactor": 0.6
      }
    },
    {
      "alphaMode": "BLEND",
      "doubleSided": true,
      "name": "Clear",
      "pbrMetallicRoughness": {
        "baseColorFactor": [
          0.800000011920929,
          0.800000011920929,
          0.800000011920929,
          0.64
        ],
        "metallicFactor": 0.0,
        "roughnessFactor": 0.6
      }
    },
    {
      "doubleSided": true,
      "name": "Material.001",
      "pbrMetallicRoughness": {
        "baseColorTexture": {
          "index": 0
        },
        "metallicFactor": 0.0,
        "roughnessFactor": 0.6
      }
    },
    {
      "doubleSided": true,
      "name": "Material.002",
      "pbrMetallicRoughness": {
        "baseColorFactor": [
          0.027209563180804253,
          0.027209563180804253,
          0.027209563180804253,
          1.0
        ],
        "metallicFactor": 0.0,
        "roughnessFactor": 0.6
      }
    },
    {
      "doubleSided": true,
      "name": "White",
      "pbrMetallicRoughness": {
        "baseColorFactor": [
          0.84687340259552,
          0.84687340259552,
          0.84687340259552,
          1.0
        ],
        "metallicFactor": 0.0,
        "roughnessFactor": 0.6
      }
    },
    {
      "doubleSided": true,
      "name": "material",
      "pbrMetallicRoughness": {
        "baseColorFactor": [
          0.8227859139442437,
          0.03310477733612064,
          0.03820437565445911,
          1.0
        ],
        "metallicFactor": 0.0,
        "roughnessFactor": 0.6
      }
    },
    {
      "doubleSided": true,
      "name": "Skin",
      "pbrMetallicRoughness": {
        "baseColorFactor": [
          0.9215819835662842,
          0.6104956269264221,
          0.43965715169906616,
          1.0
        ],
        "metallicFactor": 0.0,
        "roughnessFactor": 0.6
      }
    },
    {
      "doubleSided": true,
      "name": "Black",
      "pbrMetallicRoughness": {
        "baseColorFactor": [
          0.04970657452940941,
          0.039546236395835876,
          0.029556844383478165,
          1.0
        ],
        "metallicFactor": 0.0,
        "roughnessFactor": 0.6
      }
    },
    {
      "doubleSided": true,
      "name": "Brown",
      "pbrMetallicRoughness": {
        "baseColorFactor": [
          0.11697068810462952,
          0.024157628417015076,
          0.012286489829421052,
          1.0
        ],
        "metallicFactor": 0.0,
        "roughnessFactor": 0.6
      }
    },
    {
      "doubleSided": true,
      "name": "Gold",
      "pbrMetallicRoughness": {
        "baseColorFactor": [
          0.7230553030967711,
          0.597201943397522,
          0.016807377338409413,
          1.0
        ],
        "metallicFactor": 0.0,
        "roughnessFactor": 0.6
      }
    }
  ],
  "meshes": [
    {
      "name": "Hat_0",
      "primitives": [
        {
          "attributes": {
            "NORMAL": 1,
            "POSITION": 0
          },
          "indices": 2,
          "material": 4,
          "mode": 4
        }
      ]
    },
    {
      "name": "Hat_1",
      "primitives": [
        {
          "attributes": {
            "NORMAL": 4,
            "POSITION": 3
          },
          "indices": 5,
          "material": 5,
          "mode": 4
        }
      ]
    },
    {
      "name": "Hat_2",
      "primitives": [
        {
          "attributes": {
            "NORMAL": 7,
            "POSITION": 6
          },
          "indices": 8,
          "material": 6,
          "mode": 4
        }
      ]
    },
    {
      "name": "Hat_3",
      "primitives": [
        {
          "attributes": {
            "NORMAL": 10,
            "POSITION": 9
          },
          "indices": 11,
          "material": 7,
          "mode": 4
        }
      ]
    },
    {
      "name": "Hat_4",
      "primitives": [
        {
          "attributes": {
            "NORMAL": 13,
            "POSITION": 12
          },
          "indices": 14,
          "material": 8,
          "mode": 4
        }
      ]
    },
    {
      "name": "Hat_5",
      "primitives": [
        {
          "attributes": {
            "NORMAL": 16,
            "POSITION": 15
          },
          "indices": 17,
          "material": 0,
          "mode": 4
        }
      ]
    },
    {
      "name": "Hat_6",
      "primitives": [
        {
          "attributes": {
            "NORMAL": 19,
            "POSITION": 18
          },
          "indices": 20,
          "material": 9,
          "mode": 4
        }
      ]
    },
    {
      "name": "Hat_7",
      "primitives": [
        {
          "attributes": {
            "NORMAL": 22,
            "POSITION": 21
          },
          "indices": 23,
          "material": 1,
          "mode": 4
        }
      ]
    },
    {
      "name": "Cylinder_0",
      "primitives": [
        {
          "attributes": {
            "NORMAL": 25,
            "POSITION": 24,
            "TEXCOORD_0": 26
          },
          "indices": 27,
          "material": 2,
          "mode": 4
        }
      ]
    },
    {
      "name": "Cylinder_1",
      "primitives": [
        {
          "attributes": {
            "NORMAL": 29,
            "POSITION": 28,
            "TEXCOORD_0": 30
          },
          "indices": 31,
          "material": 3,
          "mode": 4
        }
      ]
    },
    {
      "name": "Hat.001_0",
      "primitives": [
        {
          "attributes": {
            "NORMAL": 33,
            "POSITION": 32
          },
          "indices": 34,
          "material": 0,
          "mode": 4
        }
      ]
    },
    {
      "name": "Hat.001_1",
      "primitives": [
        {
          "attributes": {
            "NORMAL": 36,
            "POSITION": 35
          },
          "indices": 37,
          "material": 1,
          "mode": 4
        }
      ]
    }
  ],
  "nodes": [
    {
      "children": [
        1
      ],
      "matrix": [
        1.0,
        0.0,
        0.0,
        0.0,
        0.0,
        2.220446049250313e-16,
        -1.0,
        0.0,
        0.0,
        1.0,
        2.220446049250313e-16,
        0.0,
        0.0,
        0.0,
        0.0,
        1.0
      ],
      "name": "Sketchfab_model"
    },
    {
      "children": [
        2,
        4,
        13,
        16,
        18,
        20,
        22
      ],
      "name": "Root"
    },
    {
      "children": [
        3
      ],
      "matrix": [
        -0.29086000000000006,
        0.9551700000000001,
        -0.05519000000000001,
        0.0,
        -0.7711,
        -0.19988000000000003,
        0.6045200000000001,
        0.0,
        0.5663900000000001,
        0.21839000000000003,
        0.7946700000000001,
        0.0,
        4.076250000000001,
        1.00545,
        5.903860000000001,
        1.0
      ],
      "name": "Lamp"
    },
    {
      "name": "Lamp"
    },
    {
      "children": [
        5,
        6,
        7,
        8,
        9,
        10,
        11,
        12
      ],
      "matrix": [
        0.06537000000000001,
        0.0,
        0.0,
        0.0,
        0.0,
        0.06537000000000001,
        0.0,
        0.0,
        0.0,
        0.0,
        0.06537000000000001,
        0.0,
        0.0,
        0.0,
        0.0,
        1.0
      ],
      "name": "Hat"
    },
    {
      "mesh": 0,
      "name": "Hat_0"
    },
    {
      "mesh": 1,
      "name": "Hat_1"
    },
    {
      "mesh": 2,
      "name": "Hat_2"
    },
    {
      "mesh": 3,
      "name": "Hat_3"
    },
    {
      "mesh": 4,
      "name": "Hat_4"
    },
    {
      "mesh": 5,
      "name": "Hat_5"
    },
    {
      "mesh": 6,
      "name": "Hat_6"
    },
    {
      "mesh": 7,
      "name": "Hat_7"
    },
    {
      "children": [
        14,
        15
      ],
      "matrix": [
        0.8694700000000001,
        0.0,
        0.0,
        0.0,
        0.0,
        0.8694700000000001,
        0.0,
        0.0,
        0.0,
        0.0,
        0.8694700000000001,
        0.0,
        0.0,
        0.0,
        -0.55883,
        1.0
      ],
      "name": "Cylinder"
    },
    {
      "mesh": 8,
      "name": "Cylinder_0"
    },
    {
      "mesh": 9,
      "name": "Cylinder_1"
    },
    {
      "children": [
        17
      ],
      "matrix": [
        -0.29086000000000006,
        0.9551700000000001,
        -0.05519000000000001,
        0.0,
        -0.7711,
        -0.19988000000000003,
        0.6045200000000001,
        0.0,
        0.5663900000000001,
        0.21839000000000003,
        0.7946700000000001,
        0.0,
        4.076250000000001,
        -3.6801700000000004,
        5.903860000000001,
        1.0
      ],
      "name": "Lamp.001"
    },
    {
      "name": "Lamp.001"
    },
    {
      "children": [
        19
      ],
      "matrix": [
        -0.29086000000000006,
        0.9551700000000001,
        -0.05519000000000001,
        0.0,
        -0.7711,
        -0.19988000000000003,
        0.6045200000000001,
        0.0,
        0.5663900000000001,
        0.21839000000000003,
        0.7946700000000001,
        0.0,
        -4.05382,
        -3.6801700000000004,
        5.903860000000001,
        1.0
      ],
      "name": "Lamp.002"
    },
    {
      "name": "Lamp.002"
    },
    {
      "children": [
        21
      ],
      "matrix": [
        -0.29086000000000006,
        0.9551700000000001,
        -0.05519000000000001,
        0.0,
        -0.7711,
        -0.19988000000000003,
        0.6045200000000001,
        0.0,
        0.5663900000000001,
        0.21839000000000003,
        0.7946700000000001,
        0.0,
        -4.05382,
        2.98428,
        5.903860000000001,
        1.0
      ],
      "name": "Lamp.003"
    },
    {
      "name": "Lamp.003"
    },
    {
      "children": [
        23,
        24
      ],
      "matrix": [
        0.06537000000000001,
        0.0,
        0.0,
        0.0,
        0.0,
        0.06537000000000001,
        0.0,
        0.0,
        0.0,
        0.0,
        0.06537000000000001,
        0.0,
        0.0,
        0.0,
        0.0,
        1.0
      ],
      "name": "Hat.001"
    },
    {
      "mesh": 10,
      "name": "Hat.001_0"
    },
    {
      "mesh": 11,
      "name": "Hat.001_1"
    }
  ],
  "samplers": [
    {
      "magFilter": 9729,
      "minFilter": 9987,
      "wrapS": 10497,
      "wrapT": 10497
    }
  ],
  "scene": 0,
  "scenes": [
    {
      "name": "Sketchfab_Scene",
      "nodes": [
        0
      ]
    }
  ],
  "textures": [
    {
      "sampler": 0,
      "source": 0
    }
  ]
}
